<?xml version="1.0" encoding="UTF-8" standalone="no"?>
<!-- Uploaded to: SVG Repo, www.svgrepo.com, Generator: SVG Repo Mixer Tools -->

<svg
   width="716.66742"
   height="716.66742"
   viewBox="0 0 21.500023 21.500023"
   fill="none"
   version="1.1"
   id="svg6"
   sodipodi:docname="map-arrow-square-svgrepo-com.svg"
   inkscape:export-filename="map-arrow-square-svgrepo-com.png"
   inkscape:export-xdpi="137.16826"
   inkscape:export-ydpi="137.16826"
   inkscape:version="1.2.2 (b0a84865, 2022-12-01)"
   xmlns:inkscape="http://www.inkscape.org/namespaces/inkscape"
   xmlns:sodipodi="http://sodipodi.sourceforge.net/DTD/sodipodi-0.dtd"
   xmlns="http://www.w3.org/2000/svg"
   xmlns:svg="http://www.w3.org/2000/svg">
  <sodipodi:namedview
     id="namedview6"
     pagecolor="#505050"
     bordercolor="#eeeeee"
     borderopacity="1"
     inkscape:showpageshadow="0"
     inkscape:pageopacity="0"
     inkscape:pagecheckerboard="0"
     inkscape:deskcolor="#505050"
     showgrid="false"
     inkscape:zoom="1.2237196"
     inkscape:cx="359.15089"
     inkscape:cy="359.15089"
     inkscape:window-width="1390"
     inkscape:window-height="1027"
     inkscape:window-x="0"
     inkscape:window-y="25"
     inkscape:window-maximized="0"
     inkscape:current-layer="svg6" />
  <defs
     id="defs10" />
  <path
     d="m 0.75001025,10.75001 c 0,4.714 0,7.0711 1.46447005,8.5355 1.46446,1.4645 3.82148,1.4645 8.5355297,1.4645 4.714,0 7.0711,0 8.5355,-1.4645 1.4645,-1.4644 1.4645,-3.8215 1.4645,-8.5355 0,-4.7140497 0,-7.0710697 -1.4645,-8.5355297 -1.4644,-1.46447005 -3.8215,-1.46447005 -8.5355,-1.46447005 -4.7140497,0 -7.0710697,0 -8.5355297,1.46447005 -0.97374,0.97374 -1.30003005,2.34208 -1.40937005,4.53553"
     stroke="#1C274C"
     stroke-width="1.5"
     stroke-linecap="round"
     id="path2"
     style="stroke:#000000;stroke-opacity:1" />
  <path
     d="m 13.26931,13.25001 -1.0966,2.8618 c -0.3182,0.8304 -1.4827,0.8574 -1.731,0.0401 l -1.0564997,-3.477 c -0.0822,-0.2704 -0.2897,-0.4779 -0.5601,-0.5601 l -3.477,-1.0565 c -0.81731,-0.2483 -0.79031,-1.4127997 0.04014,-1.7309997 l 9.1657597,-3.51209 c 0.7349,-0.2816 1.4124,0.39586 1.1308,1.13077 l -0.967,2.52372"
     stroke="#1C274C"
     stroke-width="1.5"
     stroke-linecap="round"
     id="path4"
     style="stroke:#000000;stroke-opacity:1" />
</svg>
